<svg width="55" height="38" viewBox="0 0 55 38" fill="none" xmlns="http://www.w3.org/2000/svg">
<path d="M35.4061 26.151C35.6407 26.3379 35.6591 26.6878 35.4454 26.8983L29.8405 32.4176C29.6429 32.6122 29.3246 32.6087 29.1312 32.4098L25.4603 28.6335C24.6115 27.7603 23.1309 28.209 22.9097 29.4065L22.1072 33.7496C22.0542 34.0365 21.7679 34.2173 21.4861 34.1418L13.0083 31.8701C12.7266 31.7946 12.569 31.4949 12.6665 31.22L14.1432 27.0575C14.5503 25.9099 13.4925 24.781 12.3208 25.1128L7.25351 26.5477C6.9866 26.6233 6.70919 26.4671 6.63533 26.1997L4.53965 18.6126C4.46003 18.3243 4.64957 18.0311 4.9451 17.9853L9.44691 17.2883C10.7353 17.0888 11.1734 15.4539 10.1573 14.637L6.61037 11.785C6.37674 11.5972 6.35979 11.2474 6.57415 11.0378L12.1531 5.58381C12.352 5.38937 12.6714 5.39462 12.8637 5.5955L16.5183 9.41126C17.3637 10.294 18.8534 9.84916 19.0764 8.64735L19.8923 4.24983C19.9455 3.96315 20.2317 3.78261 20.5133 3.85807L28.9824 6.12736C29.2659 6.20333 29.4233 6.50601 29.3227 6.78173L27.7953 10.9673C27.3751 12.1189 28.4387 13.261 29.6172 12.9236L34.7496 11.4545C35.0162 11.3782 35.2939 11.5333 35.3687 11.8003L37.4781 19.3305C37.5584 19.6169 37.3724 19.9096 37.0791 19.9586L32.5916 20.7086C31.3109 20.9226 30.8887 22.5523 31.9043 23.3613L35.4061 26.151Z" fill="white" stroke="#ADB8C1"/>
<path d="M48.4475 26.0254C48.6763 26.2118 48.6946 26.5549 48.487 26.7647L43.0065 32.3031C42.8077 32.5039 42.4822 32.5003 42.288 32.2951L38.8256 28.6377C37.9832 27.748 36.4872 28.1887 36.2619 29.393L35.454 33.7098C35.4004 33.996 35.1144 34.1761 34.8331 34.1007L26.6613 31.9111C26.38 31.8357 26.2223 31.5368 26.3191 31.2621L27.7778 27.1197C28.1848 25.9641 27.1096 24.8344 25.9352 25.1838L21.108 26.62C20.8372 26.7005 20.5535 26.5409 20.4818 26.2676L18.5034 18.726C18.4287 18.4414 18.6148 18.1541 18.905 18.1059L23.2986 17.3755C24.5691 17.1642 25.0001 15.5555 24.0054 14.7373L20.5688 11.9105C20.341 11.7231 20.3241 11.3803 20.5323 11.1714L25.9869 5.69848C26.1869 5.49782 26.5135 5.50324 26.7067 5.71044L30.153 9.40611C30.9918 10.3056 32.4971 9.86886 32.7242 8.66012L33.5455 4.28969C33.5992 4.00358 33.8851 3.82371 34.1663 3.89906L42.3297 6.08643C42.6127 6.16226 42.7701 6.46409 42.6704 6.73959L41.1623 10.9055C40.7426 12.0651 41.8237 13.2076 43.0047 12.8526L47.8951 11.3823C48.1655 11.3009 48.4496 11.4596 48.5222 11.7325L50.5143 19.2171C50.5895 19.4997 50.4071 19.7864 50.1191 19.8379L45.7381 20.6214C44.4756 20.8472 44.0604 22.4506 45.0547 23.2608L48.4475 26.0254Z" fill="white" stroke="#ADB8C1"/>
</svg>
