<svg width="39" height="39" viewBox="0 0 39 39" fill="none" xmlns="http://www.w3.org/2000/svg">
<path d="M23.2305 15.2569C23.2305 14.8539 23.1612 14.4913 23.0023 14.1787C22.8406 13.8605 22.6007 13.6228 22.3074 13.4528C21.7487 13.129 21 13.0556 20.2128 13.0556C19.3487 13.0556 18.4108 13.1642 17.7232 13.6752C17.478 13.8574 17.2469 14.0668 17.0335 14.2637C17.0027 14.2922 16.9724 14.3203 16.9423 14.3481C16.7581 14.5187 16.5864 14.6776 16.41 14.8224C15.9975 15.161 15.6449 15.3472 15.2695 15.3472H12.0113C11.1447 15.3472 10.537 14.6532 10.6739 13.9388C11.0871 11.7816 12.2114 10.4499 13.838 9.6355C15.4974 8.80475 17.7073 8.5 20.2837 8.5C23.2695 8.5 25.5807 9.04098 27.1323 10.1089C28.6529 11.1555 29.5 12.7463 29.5 15.0139C29.5 16.0934 29.2441 16.9164 28.8475 17.5735C28.4481 18.2353 27.8902 18.755 27.2493 19.2017C26.6335 19.6309 25.9615 19.9796 25.2938 20.3261C25.2616 20.3428 25.2295 20.3595 25.1974 20.3761C24.5156 20.7302 23.8224 21.0948 23.2856 21.5352C23.1268 21.6655 22.9758 21.7958 22.8275 21.9238C22.5397 22.1722 22.2618 22.4121 21.9557 22.6268C21.5055 22.9426 21.0953 23.125 20.695 23.125H18.383C17.9653 23.125 17.5873 22.9503 17.3493 22.6937C17.1187 22.445 17.0229 22.1287 17.1224 21.7867C17.6569 19.95 19.0103 19.0935 20.356 18.4246C20.5228 18.3417 20.694 18.2598 20.8651 18.1779C21.3553 17.9433 21.8445 17.7092 22.2248 17.4549C22.7569 17.0991 23.2305 16.6058 23.2305 15.8472V15.2569ZM19.5745 26.7292C20.6653 26.7292 21.4278 26.9689 21.9154 27.4017C22.3915 27.8243 22.6915 28.5083 22.6915 29.5972C22.6915 30.6863 22.3913 31.381 21.9125 31.8127C21.4239 32.2532 20.6617 32.5 19.5745 32.5C18.4874 32.5 17.7143 32.2533 17.216 31.8103C16.7287 31.3772 16.422 30.6824 16.422 29.5972C16.422 28.5122 16.7285 27.8281 17.2131 27.4041C17.7105 26.9689 18.4837 26.7292 19.5745 26.7292Z" stroke="#ADB8C1"/>
<circle cx="19.5" cy="19.5" r="19" stroke="#ADB8C1"/>
</svg>
