<svg width="144" height="37" viewBox="0 0 144 37" fill="none" xmlns="http://www.w3.org/2000/svg">
<path d="M12.7962 0.740601C10.1354 0.740601 6.94238 3.29052 4.35411 7.57245C1.59651 12.0468 0 17.5316 0 22.3187C0 29.343 3.94289 36.3913 12.7962 36.3913C21.6496 36.3913 25.5925 29.343 25.5925 22.3187C25.5925 17.5316 23.996 12.0228 21.2384 7.59651C18.6501 3.29052 15.4571 0.740601 12.7962 0.740601ZM81.9056 11.2289H90.8557V34.4428H100.459V11.2289H109.409V2.64101H81.9056V11.2289ZM129.922 11.2289H144V2.64101H129.922C116.98 2.64101 110.086 9.03986 110.086 18.566C110.086 28.0921 117.005 34.4909 129.922 34.4909H144V25.8789H129.922C123.923 25.8789 120.028 23.738 120.028 18.566C120.028 13.394 123.923 11.2289 129.922 11.2289ZM62.3847 2.66507L57.2565 21.6692L52.1283 2.66507H35.1715V34.515H44.7747V8.5828L51.7655 34.4669H62.7717L69.7625 8.55874V34.4669H79.3657V2.66507H62.3847Z" fill="#E30613"/>
</svg>
