<svg width="55" height="38" viewBox="0 0 55 38" fill="none" xmlns="http://www.w3.org/2000/svg"><path d="M35.406 26.151a.5.5 0 0 1 .04.747l-5.605 5.52a.5.5 0 0 1-.71-.008l-3.67-3.776c-.85-.874-2.33-.425-2.551.773l-.803 4.343a.5.5 0 0 1-.62.392l-8.479-2.272a.5.5 0 0 1-.341-.65l1.476-4.162c.407-1.148-.65-2.277-1.822-1.945l-5.067 1.435a.5.5 0 0 1-.619-.348L4.54 18.613a.5.5 0 0 1 .405-.628l4.502-.697c1.288-.2 1.726-1.834.71-2.651L6.61 11.785a.5.5 0 0 1-.036-.747l5.58-5.454a.5.5 0 0 1 .71.012l3.654 3.815c.846.883 2.335.438 2.558-.764l.816-4.397a.5.5 0 0 1 .621-.392l8.47 2.27a.5.5 0 0 1 .34.654l-1.528 4.185c-.42 1.152.644 2.294 1.822 1.957l5.133-1.47a.5.5 0 0 1 .619.346l2.11 7.53a.5.5 0 0 1-.4.629l-4.487.75c-1.281.214-1.703 1.843-.688 2.652l3.502 2.79z" fill="#fff" stroke="#ADB8C1"/><path d="M48.447 26.025a.5.5 0 0 1 .04.74l-5.48 5.538a.5.5 0 0 1-.719-.008l-3.462-3.657c-.843-.89-2.339-.45-2.564.755l-.808 4.317a.5.5 0 0 1-.62.39l-8.173-2.189a.5.5 0 0 1-.342-.649l1.459-4.142c.407-1.156-.668-2.286-1.843-1.936l-4.827 1.436a.5.5 0 0 1-.626-.352l-1.979-7.542a.5.5 0 0 1 .402-.62l4.394-.73c1.27-.212 1.701-1.82.706-2.639l-3.436-2.826a.5.5 0 0 1-.037-.74l5.455-5.473a.5.5 0 0 1 .72.012l3.446 3.696c.839.9 2.344.463 2.571-.746l.822-4.37a.5.5 0 0 1 .62-.39l8.164 2.186a.5.5 0 0 1 .34.654l-1.508 4.165c-.42 1.16.662 2.303 1.843 1.948l4.89-1.47a.5.5 0 0 1 .627.35l1.992 7.484a.5.5 0 0 1-.395.62l-4.38.784c-1.263.226-1.679 1.83-.684 2.64l3.392 2.764z" fill="#fff" stroke="#ADB8C1"/></svg>