<svg width="39" height="39" viewBox="0 0 39 39" fill="none" xmlns="http://www.w3.org/2000/svg"><path d="M23.23 15.257c0-.403-.069-.766-.228-1.078a1.74 1.74 0 0 0-.695-.726c-.558-.324-1.307-.397-2.094-.397-.864 0-1.802.108-2.49.62a8.615 8.615 0 0 0-.69.588l-.09.084c-.185.17-.357.33-.533.474-.412.339-.765.525-1.14.525h-3.26c-.866 0-1.474-.694-1.337-1.408.413-2.157 1.537-3.49 3.164-4.303 1.66-.831 3.87-1.136 6.446-1.136 2.986 0 5.297.541 6.848 1.609 1.52 1.046 2.368 2.637 2.368 4.905 0 1.08-.256 1.902-.652 2.56-.4.661-.958 1.181-1.599 1.628-.615.429-1.287.778-1.955 1.124l-.097.05c-.681.354-1.375.719-1.911 1.16-.16.13-.31.26-.459.388a11.11 11.11 0 0 1-.871.703c-.45.316-.86.498-1.261.498h-2.312c-.418 0-.796-.175-1.034-.431a.914.914 0 0 1-.227-.907c.535-1.837 1.888-2.694 3.234-3.362.167-.083.338-.165.51-.247.49-.235.979-.469 1.359-.723.532-.356 1.005-.85 1.005-1.608v-.59zm-3.655 11.472c1.09 0 1.853.24 2.34.673.477.422.777 1.106.777 2.195 0 1.09-.3 1.784-.78 2.216-.488.44-1.25.687-2.337.687-1.088 0-1.86-.247-2.359-.69-.487-.433-.794-1.128-.794-2.213 0-1.085.306-1.769.791-2.193.497-.435 1.27-.675 2.361-.675z" stroke="#ADB8C1"/><circle cx="19.5" cy="19.5" r="19" stroke="#ADB8C1"/></svg>