<svg width="144" height="37" viewBox="0 0 144 37" fill="none" xmlns="http://www.w3.org/2000/svg"><path d="M12.796.74c-2.66 0-5.854 2.55-8.442 6.832C1.597 12.047 0 17.532 0 22.32c0 7.023 3.943 14.07 12.796 14.07 8.854 0 12.797-7.048 12.797-14.072 0-4.787-1.597-10.296-4.355-14.722C18.65 3.29 15.458.74 12.796.74zm69.11 10.489h8.95v23.214h9.603V11.229h8.95V2.64H81.906v8.588zm48.016 0H144V2.64h-14.078c-12.942 0-19.836 6.399-19.836 15.925s6.919 15.925 19.836 15.925H144v-8.612h-14.078c-5.999 0-9.894-2.141-9.894-7.313s3.895-7.337 9.894-7.337zM62.385 2.665L57.257 21.67 52.128 2.665H35.172v31.85h9.603V8.583l6.99 25.884h11.007l6.99-25.908v25.908h9.604V2.665H62.385z" fill="#E30613"/></svg>